<svg width="96" height="96" viewBox="0 0 96 96" fill="none" xmlns="http://www.w3.org/2000/svg">
  <rect width="96" height="96" rx="24" fill="url(#g)"/>
  <path d="M48 17c10 13 18 24 18 38 0 14-8 24-18 24S30 69 30 55c0-10 5-17 12-26 0 11 7 17 7 17 3-8 2-17-1-29Z" fill="white" fill-opacity=".94"/>
  <path d="M49 72c-6 0-11-5-11-12 0-5 3-10 8-16 1 7 6 10 6 10 2-5 1-10 0-15 6 8 10 14 10 21 0 7-5 12-13 12Z" fill="#FDE68A"/>
  <defs><linearGradient id="g" x1="12" y1="8" x2="86" y2="92" gradientUnits="userSpaceOnUse"><stop stop-color="#EF4444"/><stop offset=".55" stop-color="#991B1B"/><stop offset="1" stop-color="#111827"/></linearGradient></defs>
</svg>
